<svg width="496" height="393" viewBox="0 0 496 393" fill="none" xmlns="http://www.w3.org/2000/svg">
<path d="M402.007 180.081L439.839 77.7758" stroke="#763F97" stroke-width="3"/>
<path d="M253.869 160.139C260.44 160.139 265.617 154.754 265.617 148.373C265.617 141.792 260.241 136.607 253.869 136.607C247.498 136.607 242.122 141.991 242.122 148.373C242.122 154.954 247.498 160.139 253.869 160.139Z" fill="#763F97"/>
<path d="M321.169 206.007C327.74 206.007 332.917 200.622 332.917 194.241C332.917 187.66 327.541 182.475 321.169 182.475C314.598 182.475 309.421 187.859 309.421 194.241C309.421 200.822 314.598 206.007 321.169 206.007Z" fill="#763F97"/>
<path d="M324.754 107.092C331.324 107.092 336.501 101.707 336.501 95.3255C336.501 88.7445 331.125 83.5594 324.754 83.5594C318.183 83.5594 313.006 88.9439 313.006 95.3256C313.006 101.907 318.382 107.092 324.754 107.092Z" fill="#763F97"/>
<path d="M224.598 81.5651C231.169 81.5651 236.346 76.1806 236.346 69.799C236.346 63.218 230.97 58.0329 224.598 58.0329C218.028 58.0329 212.851 63.4174 212.851 69.799C212.851 76.1806 218.028 81.5651 224.598 81.5651Z" fill="#763F97"/>
<path d="M128.229 131.222C134.8 131.222 139.977 125.838 139.977 119.456C139.977 112.875 134.601 107.69 128.229 107.69C121.658 107.69 116.481 113.074 116.481 119.456C116.282 126.037 121.658 131.222 128.229 131.222Z" fill="#763F97"/>
<path d="M177.608 204.81C184.179 204.81 189.356 199.426 189.356 193.044C189.356 186.463 183.98 181.278 177.608 181.278C171.038 181.278 165.861 186.662 165.861 193.044C165.861 199.625 171.237 204.81 177.608 204.81Z" fill="#763F97"/>
<path d="M76.858 207.004C83.4287 207.004 88.6057 201.619 88.6057 195.238C88.6057 188.657 83.2296 183.472 76.858 183.472C70.2873 183.472 65.1103 188.856 65.1103 195.238C64.9112 201.619 70.2873 207.004 76.858 207.004Z" fill="#763F97"/>
<path d="M92.7865 277.6C99.3572 277.6 104.534 272.216 104.534 265.834C104.534 259.253 99.1581 254.068 92.7865 254.068C86.2157 254.068 81.0388 259.453 81.0388 265.834C81.0388 272.415 86.2157 277.6 92.7865 277.6Z" fill="#763F97"/>
<path d="M174.622 301.332C181.192 301.332 186.369 295.948 186.369 289.566C186.369 282.985 180.993 277.8 174.622 277.8C168.051 277.8 162.874 283.184 162.874 289.566C162.874 295.948 168.051 301.332 174.622 301.332Z" fill="#763F97"/>
<path d="M400.018 195.637C406.589 195.637 411.766 190.252 411.766 183.87C411.766 177.289 406.39 172.104 400.018 172.104C393.447 172.104 388.271 177.489 388.271 183.87C388.271 190.252 393.447 195.637 400.018 195.637Z" fill="#763F97"/>
<path d="M349.642 271.219C356.213 271.219 361.39 265.834 361.39 259.453C361.39 252.872 356.014 247.687 349.642 247.687C343.072 247.687 337.895 253.071 337.895 259.453C337.895 265.834 343.072 271.219 349.642 271.219Z" fill="#763F97"/>
<path d="M244.511 265.635C251.082 265.635 256.259 260.25 256.259 253.869C256.259 247.288 250.883 242.103 244.511 242.103C237.94 242.103 232.763 247.487 232.763 253.869C232.564 260.25 237.94 265.635 244.511 265.635Z" fill="#763F97"/>
<path d="M176.015 392.47C182.586 392.47 187.763 387.085 187.763 380.704C187.763 374.123 182.387 368.937 176.015 368.937C169.445 368.937 164.268 374.322 164.268 380.704C164.268 387.085 169.644 392.47 176.015 392.47Z" fill="#763F97"/>
<path d="M11.7477 277.401C18.3184 277.401 23.4953 272.017 23.4953 265.635C23.4953 259.054 18.1193 253.869 11.7477 253.869C5.17693 253.869 4.69993e-07 259.253 1.02702e-06 265.635C1.58405e-06 272.017 5.37605 277.401 11.7477 277.401Z" fill="#763F97"/>
<path d="M29.4688 151.962C36.0396 151.962 41.2165 146.578 41.2165 140.196C41.2165 133.615 35.8404 128.43 29.4688 128.43C22.8981 128.43 17.7212 133.815 17.7212 140.196C17.5221 146.777 22.8981 151.962 29.4688 151.962Z" fill="#763F97"/>
<path d="M145.351 47.4633C151.922 47.4633 157.099 42.0788 157.099 35.6972C157.099 29.1161 151.723 23.931 145.351 23.931C138.78 23.931 133.604 29.3155 133.604 35.6972C133.604 42.2782 138.78 47.4633 145.351 47.4633Z" fill="#763F97"/>
<path d="M306.036 23.5322C312.607 23.5322 317.784 18.1477 317.784 11.7661C317.784 5.18504 312.408 -3.21066e-05 306.036 -3.15478e-05C299.466 -3.09716e-05 294.289 5.38447 294.289 11.7661C294.289 18.3472 299.466 23.5322 306.036 23.5322Z" fill="#763F97"/>
<path d="M441.433 83.7588C448.004 83.7588 453.181 78.3743 453.181 71.9927C453.181 65.4116 447.805 60.2266 441.433 60.2266C434.862 60.2266 429.686 65.6111 429.686 71.9927C429.686 78.3743 434.862 83.7588 441.433 83.7588Z" fill="#763F97"/>
<path d="M484.043 180.081C490.614 180.081 495.791 174.697 495.791 168.315C495.791 161.734 490.415 156.549 484.043 156.549C477.671 156.549 472.295 161.934 472.295 168.315C472.295 174.896 477.671 180.081 484.043 180.081Z" fill="#763F97"/>
<path d="M479.065 236.519C485.636 236.519 490.813 231.134 490.813 224.753C490.813 218.172 485.437 212.987 479.065 212.987C472.494 212.987 467.317 218.371 467.317 224.753C467.317 231.334 472.693 236.519 479.065 236.519Z" fill="#763F97"/>
<path d="M437.65 297.942C444.221 297.942 449.398 292.557 449.398 286.176C449.398 279.595 444.022 274.41 437.65 274.41C431.079 274.41 425.902 279.794 425.902 286.176C425.703 292.757 431.079 297.942 437.65 297.942Z" fill="#763F97"/>
<path d="M435.26 73.1892L329.73 92.5334" stroke="#763F97" stroke-width="3"/>
<path d="M308.227 13.9598L324.753 93.5306" stroke="#763F97" stroke-width="3"/>
<path d="M327.74 98.5162L399.62 183.272" stroke="#763F97" stroke-width="3"/>
<path d="M406.389 183.671L484.043 169.911" stroke="#763F97" stroke-width="3"/>
<path d="M444.021 73.9868L481.057 161.934" stroke="#763F97" stroke-width="3"/>
<path d="M311.811 11.766L437.65 69.7989" stroke="#763F97" stroke-width="3"/>
<path d="M226.989 68.403L304.842 16.7518" stroke="#763F97" stroke-width="3"/>
<path d="M230.573 71.7932L317.785 92.5335" stroke="#763F97" stroke-width="3"/>
<path d="M227.784 73.9868L251.678 142.988" stroke="#763F97" stroke-width="3"/>
<path d="M255.263 147.376L322.762 98.5163" stroke="#763F97" stroke-width="3"/>
<path d="M145.353 33.3041L302.054 13.9599" stroke="#763F97" stroke-width="3"/>
<path d="M148.139 36.6943L225.395 71.7932" stroke="#763F97" stroke-width="3"/>
<path d="M129.224 123.046L220.219 75.1834" stroke="#763F97" stroke-width="3"/>
<path d="M144.356 40.6827L126.237 119.456" stroke="#763F97" stroke-width="3"/>
<path d="M132.409 123.046L253.868 149.769" stroke="#763F97" stroke-width="3"/>
<path d="M326.545 99.1146L322.762 191.449" stroke="#763F97" stroke-width="3"/>
<path d="M322.762 193.044L399.619 184.269" stroke="#763F97" stroke-width="3"/>
<path d="M255.461 149.769L324.753 196.434" stroke="#763F97" stroke-width="3"/>
<path d="M406.389 187.859L475.481 223.556" stroke="#763F97" stroke-width="3"/>
<path d="M403.004 189.255L436.057 282.387" stroke="#763F97" stroke-width="3"/>
<path d="M397.031 187.859L349.642 259.852" stroke="#763F97" stroke-width="3"/>
<path d="M322.762 196.434L348.447 256.86" stroke="#763F97" stroke-width="3"/>
<path d="M314.599 198.428L248.891 251.077" stroke="#763F97" stroke-width="3"/>
<path d="M253.868 153.957L244.509 251.077" stroke="#763F97" stroke-width="3"/>
<path d="M251.678 149.769L178.604 194.241" stroke="#763F97" stroke-width="3"/>
<path d="M129.224 120.653L174.622 189.255" stroke="#763F97" stroke-width="3"/>
<path d="M125.197 123.784L79.9988 191.19" stroke="#763F97" stroke-width="3"/>
<path d="M77.8523 194.241L169.046 194.241" stroke="#763F97" stroke-width="3"/>
<path d="M31.061 139L121.259 120.653" stroke="#763F97" stroke-width="3"/>
<path d="M137.387 36.6943L31.061 133.416" stroke="#763F97" stroke-width="3"/>
<path d="M31.061 142.988L75.6623 194.24" stroke="#763F97" stroke-width="3"/>
<path d="M70.4866 199.426L14.9341 265.635" stroke="#763F97" stroke-width="3"/>
<path d="M12.7434 268.028L87.2116 265.834" stroke="#763F97" stroke-width="3"/>
<path d="M79.0474 197.232L94.7773 261.447" stroke="#763F97" stroke-width="3"/>
<path d="M95.3743 264.04L174.621 197.83" stroke="#763F97" stroke-width="3"/>
<path d="M177.21 195.238L245.904 254.268" stroke="#763F97" stroke-width="3"/>
<path d="M176.414 199.426L172.432 286.774" stroke="#763F97" stroke-width="3"/>
<path d="M174.622 289.367L236.347 256.86" stroke="#763F97" stroke-width="3"/>
<path d="M95.3743 265.834L167.851 286.774" stroke="#763F97" stroke-width="3"/>
<path d="M93.7822 268.028L170.042 376.914" stroke="#763F97" stroke-width="3"/>
<path d="M174.622 291.959L177.409 375.917" stroke="#763F97" stroke-width="3"/>
<path d="M243.316 259.852L179.6 381.501" stroke="#763F97" stroke-width="3"/>
<path d="M15.7297 271.019L173.427 381.501" stroke="#763F97" stroke-width="3"/>
<path d="M247.895 253.669L342.872 259.453" stroke="#763F97" stroke-width="3"/>
<path d="M353.824 259.851L433.469 286.774" stroke="#763F97" stroke-width="3"/>
<path d="M437.649 285.378L477.272 230.935" stroke="#763F97" stroke-width="3"/>
<path d="M484.044 171.905L479.066 220.166" stroke="#763F97" stroke-width="3"/>
<path d="M25.8846 142.988L11.7476 253.669" stroke="#763F97" stroke-width="3"/>
</svg>
